<?xml version="1.0" encoding="UTF-8" standalone="no"?>
<svg
   xmlns:osb="http://www.openswatchbook.org/uri/2009/osb"
   xmlns:dc="http://purl.org/dc/elements/1.1/"
   xmlns:cc="http://creativecommons.org/ns#"
   xmlns:rdf="http://www.w3.org/1999/02/22-rdf-syntax-ns#"
   xmlns:svg="http://www.w3.org/2000/svg"
   xmlns="http://www.w3.org/2000/svg"
   xmlns:xlink="http://www.w3.org/1999/xlink"
   xmlns:sodipodi="http://sodipodi.sourceforge.net/DTD/sodipodi-0.dtd"
   xmlns:inkscape="http://www.inkscape.org/namespaces/inkscape"
   width="24"
   height="24"
   viewBox="0 0 24 24"
   id="svg2"
   version="1.1"
   inkscape:version="0.91 r13725"
   sodipodi:docname="icon.svg"
   inkscape:export-filename="E:\Git\k2-led-controller\electron\icon.png"
   inkscape:export-xdpi="3840"
   inkscape:export-ydpi="3840">
  <metadata
     id="metadata14">
    <rdf:RDF>
      <cc:Work
         rdf:about="">
        <dc:format>image/svg+xml</dc:format>
        <dc:type
           rdf:resource="http://purl.org/dc/dcmitype/StillImage" />
        <dc:title />
      </cc:Work>
    </rdf:RDF>
  </metadata>
  <defs
     id="defs12">
    <linearGradient
       inkscape:collect="always"
       id="linearGradient8095">
      <stop
         style="stop-color:#5157e0;stop-opacity:1"
         offset="0"
         id="stop8097" />
      <stop
         style="stop-color:#5d2805;stop-opacity:1"
         offset="1"
         id="stop8099" />
    </linearGradient>
    <linearGradient
       id="linearGradient8085"
       osb:paint="gradient">
      <stop
         style="stop-color:#b3bfe3;stop-opacity:1;"
         offset="0"
         id="stop8087" />
      <stop
         style="stop-color:#b3bfe3;stop-opacity:0;"
         offset="1"
         id="stop8089" />
    </linearGradient>
    <linearGradient
       inkscape:collect="always"
       xlink:href="#linearGradient8095"
       id="linearGradient8101"
       x1="9"
       y1="3"
       x2="21"
       y2="30"
       gradientUnits="userSpaceOnUse" />
  </defs>
  <sodipodi:namedview
     pagecolor="#ffffff"
     bordercolor="#666666"
     borderopacity="1"
     objecttolerance="10"
     gridtolerance="10"
     guidetolerance="10"
     inkscape:pageopacity="0"
     inkscape:pageshadow="2"
     inkscape:window-width="1920"
     inkscape:window-height="1017"
     id="namedview10"
     showgrid="true"
     inkscape:zoom="13.906433"
     inkscape:cx="14.853417"
     inkscape:cy="20.056938"
     inkscape:window-x="-8"
     inkscape:window-y="-8"
     inkscape:window-maximized="1"
     inkscape:current-layer="layer2">
    <inkscape:grid
       type="xygrid"
       id="grid8083"
       dotted="false" />
  </sodipodi:namedview>
  <g
     inkscape:groupmode="layer"
     id="layer1"
     inkscape:label="Layer 1"
     style="display:inline">
    <circle
       style="fill:url(#linearGradient8101);fill-opacity:1;stroke:#000000;stroke-width:0.05;stroke-linecap:butt;stroke-linejoin:miter;stroke-miterlimit:4;stroke-dasharray:none;stroke-opacity:1"
       id="path8081"
       cx="12"
       cy="12"
       r="11.5" />
  </g>
  <g
     inkscape:groupmode="layer"
     id="layer2"
     inkscape:label="Layer 2">
    <path
       style="opacity:0.3;fill:#ffffff;fill-opacity:1"
       d="M 13.473035,9.0674803 12.736518,8.6403 l 0,-2.9166102 -1.473036,0 0,2.9166102 -0.736517,0.4271803 C 9.6136826,9.597775 9.0539291,10.569982 9.0539291,11.615837 c 0,1.627704 1.3183669,2.946071 2.9460709,2.946071 1.627704,0 2.946071,-1.318367 2.946071,-2.946071 0,-1.045855 -0.567119,-2.018062 -1.473036,-2.5483567 z"
       id="path6"
       inkscape:connector-curvature="0" />
    <path
       d="m 5.7764253,16.800922 1.03849,1.03849 1.3183667,-1.325732 -1.03849,-1.03849 z m 5.4870567,0.670231 1.473036,0 0,2.209553 -1.473036,0 z m -7.3651769,-6.62866 2.2095531,0 0,1.473036 -2.2095531,0 z m 10.3112479,-3.0491884 0,-3.5426502 -4.4191062,0 0,3.5426502 C 8.4720801,8.559283 7.5808937,9.9807675 7.5808937,11.615837 c 0,2.437874 1.9812326,4.419106 4.4191063,4.419106 2.437874,0 4.419106,-1.981232 4.419106,-4.419106 0,-1.6350695 -0.891186,-3.056554 -2.209553,-3.8225324 z M 12,14.561908 c -1.627704,0 -2.9460709,-1.318367 -2.9460709,-2.946071 0,-1.045855 0.5671187,-2.018062 1.4730359,-2.5483567 L 11.263482,8.6403 l 0,-2.9166102 1.473036,0 0,2.9166102 0.736517,0.4271803 c 0.913282,0.5302947 1.473036,1.5025017 1.473036,2.5483567 0,1.627704 -1.318367,2.946071 -2.946071,2.946071 z m 5.892142,-3.719415 2.209553,0 0,1.473036 -2.209553,0 z m -2.032789,5.678552 1.318367,1.325732 1.03849,-1.03849 -1.325732,-1.318367 z"
       id="path8"
       style="fill:#ffffff;fill-opacity:1"
       inkscape:connector-curvature="0" />
  </g>
</svg>
